<svg width="640" height="646" viewBox="0 0 640 646" fill="none" xmlns="http://www.w3.org/2000/svg">
  <path d="M104 31H272C336 31 375 104 343 160L259 307C246 331 262 360 286 360C297 360 310 354 322 340L458 45C463 36 473 31 484 31H609L479 336C438 434 359 514 263 572C204 608 141 623 101 623C37 623 0 592 0 539C0 518 7 493 21 464L152 170C162 148 147 122 123 122H43L104 31Z" fill="#A80E06"/>
  <path d="M104 31H272C336 31 375 104 343 160L259 307C246 331 262 360 286 360C297 360 310 354 322 340L458 45C463 36 473 31 484 31H609L479 336C438 434 359 514 263 572C204 608 141 623 101 623C37 623 0 592 0 539C0 518 7 493 21 464L152 170C162 148 147 122 123 122H43L104 31Z" stroke="#FFB54D" stroke-width="18" stroke-linejoin="round"/>
</svg>
